<mxfile host="65bd71144e">
    <diagram id="YwI76OkWBMFNwc3MdaiV" name="Page-1">
        <mxGraphModel dx="2795" dy="2183" grid="1" gridSize="10" guides="1" tooltips="1" connect="1" arrows="1" fold="1" page="1" pageScale="1" pageWidth="850" pageHeight="1100" math="0" shadow="0">
            <root>
                <mxCell id="0"/>
                <mxCell id="1" parent="0"/>
                <mxCell id="68" value="" style="group" parent="1" vertex="1" connectable="0">
                    <mxGeometry x="850" y="-20" width="850" height="400" as="geometry"/>
                </mxCell>
                <mxCell id="69" value="" style="group" parent="68" vertex="1" connectable="0">
                    <mxGeometry width="850" height="400" as="geometry"/>
                </mxCell>
                <mxCell id="70" value="" style="group" parent="69" vertex="1" connectable="0">
                    <mxGeometry width="850" height="400" as="geometry"/>
                </mxCell>
                <mxCell id="60" value="" style="group" parent="70" vertex="1" connectable="0">
                    <mxGeometry y="110" width="325" height="220" as="geometry"/>
                </mxCell>
                <mxCell id="63" value="" style="group" parent="60" vertex="1" connectable="0">
                    <mxGeometry width="325" height="220" as="geometry"/>
                </mxCell>
                <mxCell id="57" value="" style="rounded=0;whiteSpace=wrap;html=1;" parent="63" vertex="1">
                    <mxGeometry width="325" height="220" as="geometry"/>
                </mxCell>
                <mxCell id="58" value="" style="rounded=0;whiteSpace=wrap;html=1;" parent="63" vertex="1">
                    <mxGeometry x="15" y="20" width="170" height="20" as="geometry"/>
                </mxCell>
                <mxCell id="59" value="" style="rounded=0;whiteSpace=wrap;html=1;" parent="63" vertex="1">
                    <mxGeometry x="15" y="140" width="110" height="20" as="geometry"/>
                </mxCell>
                <mxCell id="61" value="Insert point" style="text;html=1;align=center;verticalAlign=middle;whiteSpace=wrap;rounded=0;" parent="63" vertex="1">
                    <mxGeometry x="15" y="15" width="85" height="30" as="geometry"/>
                </mxCell>
                <mxCell id="62" value="Insert point" style="text;html=1;align=center;verticalAlign=middle;whiteSpace=wrap;rounded=0;" parent="63" vertex="1">
                    <mxGeometry x="15" y="135" width="85" height="30" as="geometry"/>
                </mxCell>
                <mxCell id="19" value="" style="group" parent="70" vertex="1" connectable="0">
                    <mxGeometry width="780" height="30" as="geometry"/>
                </mxCell>
                <mxCell id="17" value="" style="rounded=0;whiteSpace=wrap;html=1;" parent="19" vertex="1">
                    <mxGeometry width="780" height="30" as="geometry"/>
                </mxCell>
                <mxCell id="18" value="Nav" style="text;html=1;align=center;verticalAlign=middle;whiteSpace=wrap;rounded=0;" parent="19" vertex="1">
                    <mxGeometry x="360" width="60" height="30" as="geometry"/>
                </mxCell>
                <mxCell id="32" value="" style="group" parent="70" vertex="1" connectable="0">
                    <mxGeometry y="40" width="850" height="360" as="geometry"/>
                </mxCell>
                <mxCell id="44" value="" style="group" parent="32" vertex="1" connectable="0">
                    <mxGeometry width="850" height="360" as="geometry"/>
                </mxCell>
                <mxCell id="113" value="" style="rounded=0;whiteSpace=wrap;html=1;fillColor=none;" parent="44" vertex="1">
                    <mxGeometry x="-50" y="-50" width="900" height="415" as="geometry"/>
                </mxCell>
                <mxCell id="24" value="" style="rounded=1;whiteSpace=wrap;html=1;" parent="44" vertex="1">
                    <mxGeometry width="775" height="60" as="geometry"/>
                </mxCell>
                <mxCell id="25" value="" style="rounded=0;whiteSpace=wrap;html=1;" parent="44" vertex="1">
                    <mxGeometry x="15" y="5" width="100" height="50" as="geometry"/>
                </mxCell>
                <mxCell id="26" value="" style="rounded=0;whiteSpace=wrap;html=1;" parent="44" vertex="1">
                    <mxGeometry x="125" y="5" width="100" height="50" as="geometry"/>
                </mxCell>
                <mxCell id="27" value="" style="rounded=0;whiteSpace=wrap;html=1;" parent="44" vertex="1">
                    <mxGeometry x="235" y="5" width="100" height="50" as="geometry"/>
                </mxCell>
                <mxCell id="28" value="" style="rounded=0;whiteSpace=wrap;html=1;" parent="44" vertex="1">
                    <mxGeometry x="345" y="5" width="100" height="50" as="geometry"/>
                </mxCell>
                <mxCell id="29" value="" style="rounded=0;whiteSpace=wrap;html=1;" parent="44" vertex="1">
                    <mxGeometry x="455" y="5" width="100" height="50" as="geometry"/>
                </mxCell>
                <mxCell id="30" value="" style="rounded=0;whiteSpace=wrap;html=1;" parent="44" vertex="1">
                    <mxGeometry x="565" y="5" width="100" height="50" as="geometry"/>
                </mxCell>
                <mxCell id="31" value="" style="rounded=0;whiteSpace=wrap;html=1;" parent="44" vertex="1">
                    <mxGeometry x="675" y="5" width="90" height="50" as="geometry"/>
                </mxCell>
                <mxCell id="42" value="&quot;Pieces&quot;" style="text;html=1;align=center;verticalAlign=middle;whiteSpace=wrap;rounded=0;" parent="44" vertex="1">
                    <mxGeometry x="365" y="15" width="60" height="30" as="geometry"/>
                </mxCell>
                <mxCell id="114" value="Sandbox" style="text;html=1;align=center;verticalAlign=middle;whiteSpace=wrap;rounded=0;" parent="44" vertex="1">
                    <mxGeometry x="-50" y="330" width="60" height="30" as="geometry"/>
                </mxCell>
                <mxCell id="66" value="" style="group" parent="70" vertex="1" connectable="0">
                    <mxGeometry x="340" y="110" width="440" height="220" as="geometry"/>
                </mxCell>
                <mxCell id="64" value="" style="rounded=0;whiteSpace=wrap;html=1;" parent="66" vertex="1">
                    <mxGeometry width="440" height="220" as="geometry"/>
                </mxCell>
                <mxCell id="65" value="Preview frame (javascript check insert points and GET the components from php)" style="text;html=1;align=center;verticalAlign=middle;whiteSpace=wrap;rounded=0;" parent="66" vertex="1">
                    <mxGeometry x="3" width="437" height="30" as="geometry"/>
                </mxCell>
                <mxCell id="119" value="" style="group" parent="1" vertex="1" connectable="0">
                    <mxGeometry x="850" y="440" width="1930" height="520" as="geometry"/>
                </mxCell>
                <mxCell id="116" value="" style="group" parent="119" vertex="1" connectable="0">
                    <mxGeometry x="62.5" y="40" width="1757.5" height="430" as="geometry"/>
                </mxCell>
                <mxCell id="100" value="" style="shape=flexArrow;endArrow=classic;html=1;movable=1;resizable=1;rotatable=1;deletable=1;editable=1;locked=0;connectable=1;" parent="116" edge="1">
                    <mxGeometry width="50" height="50" relative="1" as="geometry">
                        <mxPoint x="807.5" y="190" as="sourcePoint"/>
                        <mxPoint x="957.5" y="190" as="targetPoint"/>
                    </mxGeometry>
                </mxCell>
                <mxCell id="111" value="" style="group" parent="116" vertex="1" connectable="0">
                    <mxGeometry x="977.5" width="780" height="430" as="geometry"/>
                </mxCell>
                <mxCell id="101" value="" style="rounded=0;whiteSpace=wrap;html=1;movable=1;resizable=1;rotatable=1;deletable=1;editable=1;locked=0;connectable=1;container=0;" parent="111" vertex="1">
                    <mxGeometry y="40" width="780" height="390" as="geometry"/>
                </mxCell>
                <mxCell id="106" value="Expected frame" style="rounded=1;whiteSpace=wrap;html=1;movable=1;resizable=1;rotatable=1;deletable=1;editable=1;locked=0;connectable=1;container=0;" parent="111" vertex="1">
                    <mxGeometry x="10" y="45" width="370" height="325" as="geometry"/>
                </mxCell>
                <mxCell id="107" value="&quot;Chosen&quot; Frame" style="rounded=1;whiteSpace=wrap;html=1;movable=1;resizable=1;rotatable=1;deletable=1;editable=1;locked=0;connectable=1;container=0;" parent="111" vertex="1">
                    <mxGeometry x="400" y="47.5" width="370" height="325" as="geometry"/>
                </mxCell>
                <mxCell id="108" value="Score + Witty response" style="rounded=0;whiteSpace=wrap;html=1;movable=1;resizable=1;rotatable=1;deletable=1;editable=1;locked=0;connectable=1;container=0;" parent="111" vertex="1">
                    <mxGeometry x="320" y="390" width="140" height="30" as="geometry"/>
                </mxCell>
                <mxCell id="104" value="" style="rounded=0;whiteSpace=wrap;html=1;movable=1;resizable=1;rotatable=1;deletable=1;editable=1;locked=0;connectable=1;container=0;" parent="111" vertex="1">
                    <mxGeometry width="780" height="30" as="geometry"/>
                </mxCell>
                <mxCell id="105" value="Nav" style="text;html=1;align=center;verticalAlign=middle;whiteSpace=wrap;rounded=0;movable=1;resizable=1;rotatable=1;deletable=1;editable=1;locked=0;connectable=1;container=0;" parent="111" vertex="1">
                    <mxGeometry x="360" width="60" height="30" as="geometry"/>
                </mxCell>
                <mxCell id="112" value="" style="group" parent="116" vertex="1" connectable="0">
                    <mxGeometry width="780" height="370" as="geometry"/>
                </mxCell>
                <mxCell id="98" value="Submit" style="rounded=1;whiteSpace=wrap;html=1;movable=1;resizable=1;rotatable=1;deletable=1;editable=1;locked=0;connectable=1;container=0;" parent="112" vertex="1">
                    <mxGeometry x="285" y="340" width="120" height="30" as="geometry"/>
                </mxCell>
                <mxCell id="76" value="" style="rounded=0;whiteSpace=wrap;html=1;movable=1;resizable=1;rotatable=1;deletable=1;editable=1;locked=0;connectable=1;container=0;" parent="112" vertex="1">
                    <mxGeometry y="110" width="325" height="220" as="geometry"/>
                </mxCell>
                <mxCell id="77" value="" style="rounded=0;whiteSpace=wrap;html=1;movable=1;resizable=1;rotatable=1;deletable=1;editable=1;locked=0;connectable=1;container=0;" parent="112" vertex="1">
                    <mxGeometry x="15" y="130" width="170" height="20" as="geometry"/>
                </mxCell>
                <mxCell id="78" value="" style="rounded=0;whiteSpace=wrap;html=1;movable=1;resizable=1;rotatable=1;deletable=1;editable=1;locked=0;connectable=1;container=0;" parent="112" vertex="1">
                    <mxGeometry x="15" y="250" width="110" height="20" as="geometry"/>
                </mxCell>
                <mxCell id="79" value="Insert point" style="text;html=1;align=center;verticalAlign=middle;whiteSpace=wrap;rounded=0;movable=1;resizable=1;rotatable=1;deletable=1;editable=1;locked=0;connectable=1;container=0;" parent="112" vertex="1">
                    <mxGeometry x="15" y="125" width="85" height="30" as="geometry"/>
                </mxCell>
                <mxCell id="80" value="Insert point" style="text;html=1;align=center;verticalAlign=middle;whiteSpace=wrap;rounded=0;movable=1;resizable=1;rotatable=1;deletable=1;editable=1;locked=0;connectable=1;container=0;" parent="112" vertex="1">
                    <mxGeometry x="15" y="245" width="85" height="30" as="geometry"/>
                </mxCell>
                <mxCell id="82" value="" style="rounded=0;whiteSpace=wrap;html=1;movable=1;resizable=1;rotatable=1;deletable=1;editable=1;locked=0;connectable=1;container=0;" parent="112" vertex="1">
                    <mxGeometry width="780" height="30" as="geometry"/>
                </mxCell>
                <mxCell id="83" value="Nav" style="text;html=1;align=center;verticalAlign=middle;whiteSpace=wrap;rounded=0;movable=1;resizable=1;rotatable=1;deletable=1;editable=1;locked=0;connectable=1;container=0;" parent="112" vertex="1">
                    <mxGeometry x="360" width="60" height="30" as="geometry"/>
                </mxCell>
                <mxCell id="86" value="" style="rounded=1;whiteSpace=wrap;html=1;movable=1;resizable=1;rotatable=1;deletable=1;editable=1;locked=0;connectable=1;container=0;" parent="112" vertex="1">
                    <mxGeometry y="40" width="775" height="60" as="geometry"/>
                </mxCell>
                <mxCell id="87" value="" style="rounded=0;whiteSpace=wrap;html=1;movable=1;resizable=1;rotatable=1;deletable=1;editable=1;locked=0;connectable=1;container=0;" parent="112" vertex="1">
                    <mxGeometry x="15" y="45" width="100" height="50" as="geometry"/>
                </mxCell>
                <mxCell id="88" value="" style="rounded=0;whiteSpace=wrap;html=1;movable=1;resizable=1;rotatable=1;deletable=1;editable=1;locked=0;connectable=1;container=0;" parent="112" vertex="1">
                    <mxGeometry x="125" y="45" width="100" height="50" as="geometry"/>
                </mxCell>
                <mxCell id="89" value="" style="rounded=0;whiteSpace=wrap;html=1;movable=1;resizable=1;rotatable=1;deletable=1;editable=1;locked=0;connectable=1;container=0;" parent="112" vertex="1">
                    <mxGeometry x="235" y="45" width="100" height="50" as="geometry"/>
                </mxCell>
                <mxCell id="90" value="" style="rounded=0;whiteSpace=wrap;html=1;movable=1;resizable=1;rotatable=1;deletable=1;editable=1;locked=0;connectable=1;container=0;" parent="112" vertex="1">
                    <mxGeometry x="345" y="45" width="100" height="50" as="geometry"/>
                </mxCell>
                <mxCell id="91" value="" style="rounded=0;whiteSpace=wrap;html=1;movable=1;resizable=1;rotatable=1;deletable=1;editable=1;locked=0;connectable=1;container=0;" parent="112" vertex="1">
                    <mxGeometry x="455" y="45" width="100" height="50" as="geometry"/>
                </mxCell>
                <mxCell id="92" value="" style="rounded=0;whiteSpace=wrap;html=1;movable=1;resizable=1;rotatable=1;deletable=1;editable=1;locked=0;connectable=1;container=0;" parent="112" vertex="1">
                    <mxGeometry x="565" y="45" width="100" height="50" as="geometry"/>
                </mxCell>
                <mxCell id="93" value="" style="rounded=0;whiteSpace=wrap;html=1;movable=1;resizable=1;rotatable=1;deletable=1;editable=1;locked=0;connectable=1;container=0;" parent="112" vertex="1">
                    <mxGeometry x="675" y="45" width="90" height="50" as="geometry"/>
                </mxCell>
                <mxCell id="94" value="&quot;Pieces&quot;" style="text;html=1;align=center;verticalAlign=middle;whiteSpace=wrap;rounded=0;movable=1;resizable=1;rotatable=1;deletable=1;editable=1;locked=0;connectable=1;container=0;" parent="112" vertex="1">
                    <mxGeometry x="365" y="55" width="60" height="30" as="geometry"/>
                </mxCell>
                <mxCell id="96" value="" style="rounded=0;whiteSpace=wrap;html=1;movable=1;resizable=1;rotatable=1;deletable=1;editable=1;locked=0;connectable=1;container=0;" parent="112" vertex="1">
                    <mxGeometry x="340" y="110" width="440" height="220" as="geometry"/>
                </mxCell>
                <mxCell id="97" value="Preview frame (javascript check insert points and GET the components from php)" style="text;html=1;align=center;verticalAlign=middle;whiteSpace=wrap;rounded=0;movable=1;resizable=1;rotatable=1;deletable=1;editable=1;locked=0;connectable=1;container=0;" parent="112" vertex="1">
                    <mxGeometry x="343" y="110" width="437" height="30" as="geometry"/>
                </mxCell>
                <mxCell id="117" value="" style="rounded=0;whiteSpace=wrap;html=1;fillColor=none;" parent="119" vertex="1">
                    <mxGeometry width="1930" height="520" as="geometry"/>
                </mxCell>
                <mxCell id="118" value="Exercise" style="text;html=1;align=center;verticalAlign=middle;whiteSpace=wrap;rounded=0;" parent="119" vertex="1">
                    <mxGeometry y="490" width="60" height="30" as="geometry"/>
                </mxCell>
            </root>
        </mxGraphModel>
    </diagram>
</mxfile>